# xmcd
#
# Track frame offsets: 
#        150
#        9962
#        21168
#        31832
#        42432
#        53942
#        63336
#        73294
#        83542
#        95150
#        104492
#        114177
#        125145
#        135945
#        148654
#        161378
#        171931
#        183121
#        194894
#        208201
#        220221
#        231930
#
# Disc length: 3247 seconds
#
# Revision: 0
# Processed by: cddbd v1.5.2PL0 Copyright (c) Steve Scherf et al.
# Submitted via: ExactAudioCopy v0.95a5
#
DISCID=400cad16
DTITLE=King (Earl) - The Chronological Earl King 1953-1955
DYEAR=2006
DGENRE=Blues
TTITLE0=Have You Gone Crazy
TTITLE1=Beggin' At Your Mercy
TTITLE2=A Mother's Love
TTITLE3=I'm Your Best Bet, Baby
TTITLE4=What Can I Do
TTITLE5=til I Say Well Done
TTITLE6=No One But Me
TTITLE7=Eating And Sleeping
TTITLE8=Sitting And Wondering
TTITLE9=Funny Face
TTITLE10=Baby You Can Get Your Gun
TTITLE11=Those Lonely, Lonely Nights
TTITLE12=Mother Told Me Not To Go
TTITLE13=Is Everything All Right
TTITLE14=Everybody Got To Cry
TTITLE15=Little Girl
TTITLE16=My Love Is Strong
TTITLE17=It Must Have Been Love
TTITLE18=I'll Take You Back Home
TTITLE19=I Met A Stranger
TTITLE20=I'm Packing Up
TTITLE21=Nobody Cares
EXTD=
EXTT0=
EXTT1=
EXTT2=
EXTT3=
EXTT4=
EXTT5=
EXTT6=
EXTT7=
EXTT8=
EXTT9=
EXTT10=
EXTT11=
EXTT12=
EXTT13=
EXTT14=
EXTT15=
EXTT16=
EXTT17=
EXTT18=
EXTT19=
EXTT20=
EXTT21=
PLAYORDER=
